HIERARCHY
ROOT joint_Root
{
	OFFSET 0.0 0.0 0.0
	CHANNELS 6 Xposition Yposition Zposition Zrotation Xrotation Yrotation 
	JOINT Hips
	{
		OFFSET 4.5925 91.4895 -427.239
		CHANNELS 6 Xposition Yposition Zposition Zrotation Xrotation Yrotation 
		JOINT Spine
		{
			OFFSET 15.7357 0.0 0.0
			CHANNELS 6 Xposition Yposition Zposition Zrotation Xrotation Yrotation 
			JOINT Chest
			{
				OFFSET 8.98455 -0.406207 0.0
				CHANNELS 6 Xposition Yposition Zposition Zrotation Xrotation Yrotation 
				JOINT Neck
				{
					OFFSET 16.3773 0.0 0.0
					CHANNELS 6 Xposition Yposition Zposition Zrotation Xrotation Yrotation 
					JOINT Head
					{
						OFFSET 6.45672 0.0 0.0
						CHANNELS 6 Xposition Yposition Zposition Zrotation Xrotation Yrotation 
						End Site
						{
							OFFSET 0.0 0.0 0.0
						}
					}
				}
				JOINT Shoulder_L
				{
					OFFSET 12.9942 -0.242716 4.98039
					CHANNELS 6 Xposition Yposition Zposition Zrotation Xrotation Yrotation 
					JOINT UpperArm_L
					{
						OFFSET 5.34809 0.0 0.0
						CHANNELS 6 Xposition Yposition Zposition Zrotation Xrotation Yrotation 
						JOINT LowerArm_L
						{
							OFFSET 24.3286 1.87007e-05 0.0
							CHANNELS 6 Xposition Yposition Zposition Zrotation Xrotation Yrotation 
							JOINT Hand_L
							{
								OFFSET 22.2916 0.0 0.0
								CHANNELS 6 Xposition Yposition Zposition Zrotation Xrotation Yrotation 
								End Site
								{
									OFFSET 0.0 0.0 0.0
								}
							}
						}
					}
				}
				JOINT Shoulder_R
				{
					OFFSET 12.9945 -0.242716 -4.98039
					CHANNELS 6 Xposition Yposition Zposition Zrotation Xrotation Yrotation 
					JOINT UpperArm_R
					{
						OFFSET -5.34813 0.0 0.0
						CHANNELS 6 Xposition Yposition Zposition Zrotation Xrotation Yrotation 
						JOINT LowerArm_R
						{
							OFFSET -24.3289 0.000322201 0.0
							CHANNELS 6 Xposition Yposition Zposition Zrotation Xrotation Yrotation 
							JOINT Hand_R
							{
								OFFSET -22.2915 -0.000108084 0.0
								CHANNELS 6 Xposition Yposition Zposition Zrotation Xrotation Yrotation 
								End Site
								{
									OFFSET 0.0 0.0 0.0
								}
							}
						}
					}
				}
			}
		}
		JOINT UpperLeg_L
		{
			OFFSET -2.19248 -6.46944 0.0
			CHANNELS 6 Xposition Yposition Zposition Zrotation Xrotation Yrotation 
			JOINT LowerLeg_L
			{
				OFFSET 39.0811 0.0 -1.23785e-05
				CHANNELS 6 Xposition Yposition Zposition Zrotation Xrotation Yrotation 
				JOINT Foot_L
				{
					OFFSET 40.9854 0.0 -1.26872e-05
					CHANNELS 6 Xposition Yposition Zposition Zrotation Xrotation Yrotation 
					JOINT Toes_L
					{
						OFFSET 11.7543 0.0 0.0
						CHANNELS 6 Xposition Yposition Zposition Zrotation Xrotation Yrotation 
						End Site
						{
							OFFSET 0.0 0.0 0.0
						}
					}
				}
			}
		}
		JOINT UpperLeg_R
		{
			OFFSET -2.19251 6.46944 0.0
			CHANNELS 6 Xposition Yposition Zposition Zrotation Xrotation Yrotation 
			JOINT LowerLeg_R
			{
				OFFSET -39.0811 -0.00228153 -0.0401928
				CHANNELS 6 Xposition Yposition Zposition Zrotation Xrotation Yrotation 
				JOINT Foot_R
				{
					OFFSET -40.9854 0.0 0.0
					CHANNELS 6 Xposition Yposition Zposition Zrotation Xrotation Yrotation 
					JOINT Toes_R
					{
						OFFSET -11.7543 0.0 0.0
						CHANNELS 6 Xposition Yposition Zposition Zrotation Xrotation Yrotation 
						End Site
						{
							OFFSET 0.0 0.0 0.0
						}
					}
				}
			}
		}
	}
}
MOTION
Frames:	6
Frame Time:	0.0333333
0.000000 0.000000 0.000000 0.000000 0.000000 -0.000000 -0.283871 91.265700 2.977540 89.308700 -3.041560 5.709450 15.735700 0.000005 -0.000001 93.046200 88.004200 -94.941400 8.984550 -0.406207 -0.000000 -3.770590 0.402681 -3.778470 16.377300 -0.000001 -0.000001 4.192700 -1.995780 -1.347280 6.456720 -0.000001 -0.000000 0.088627 -2.831930 -2.545890 12.994200 -0.242716 4.980390 -82.024000 -12.658800 -57.407100 5.348090 -0.000007 -0.000001 -49.491700 -59.690600 -84.432600 24.328600 0.000019 0.000005 10.886100 8.554030 -52.256800 22.291600 -0.000001 0.000005 28.399600 5.311250 -0.190004 12.994500 -0.242716 -4.980390 94.812300 -13.026600 -69.520800 -5.348130 -0.000001 -0.000004 -40.386500 -58.099800 -70.192000 -24.328900 0.000322 -0.000009 -10.810300 -12.797600 -40.785100 -22.291500 -0.000108 -0.000004 26.966800 5.632970 -12.547400 -2.192480 -6.469440 -0.000000 -175.710000 -12.208000 -0.644913 39.081100 -0.000007 -0.000012 -0.158496 0.312217 26.914600 40.985400 -0.000006 -0.000013 0.174037 4.369650 -70.422200 11.754300 -0.000000 0.000003 -0.000264 -0.002341 -16.665100 -2.192510 6.469440 -0.000001 175.452000 18.753700 179.832000 -39.081100 -0.002282 -0.040193 0.004235 -0.001843 26.685000 -40.985400 0.000008 0.000006 6.439440 14.310000 -71.589100 -11.754300 -0.000006 -0.000006 -0.004287 -0.054397 -18.786000
0.000000 0.000000 0.000000 0.000000 0.000000 -0.000000 -0.400703 91.244200 2.709010 89.315300 -2.509640 6.019590 15.735700 0.000005 -0.000001 95.909100 87.562800 -97.922900 8.984550 -0.406207 -0.000000 -2.902420 0.688997 -4.010600 16.377300 -0.000001 -0.000001 2.949310 -1.195480 -3.182010 6.456720 -0.000001 -0.000000 0.108565 -3.503070 -2.131090 12.994200 -0.242716 4.980390 -83.112500 -11.845700 -59.527100 5.348090 -0.000007 -0.000001 -43.976300 -57.733300 -72.858600 24.328600 0.000019 0.000005 5.706510 7.286840 -38.183200 22.291600 -0.000001 0.000005 21.613600 5.169140 3.560260 12.994500 -0.242716 -4.980390 93.720000 -11.263100 -71.590800 -5.348130 -0.000001 -0.000004 -37.669400 -57.164300 -57.950300 -24.328900 0.000322 -0.000009 -13.936800 -22.272000 -33.232000 -22.291500 -0.000108 -0.000004 21.306900 5.402930 -3.037640 -2.192480 -6.469440 -0.000000 -175.606000 -11.913300 -0.778395 39.081100 -0.000007 -0.000012 -0.160988 0.312393 27.264000 40.985400 -0.000006 -0.000013 0.182403 4.632230 -70.340700 11.754300 -0.000000 0.000003 -0.000228 -0.002064 -16.655100 -2.192510 6.469440 -0.000001 175.379000 19.273300 179.979000 -39.081100 -0.002282 -0.040193 -0.003872 0.014176 26.862300 -40.985400 0.000008 0.000006 6.397340 14.331400 -71.605000 -11.754300 -0.000006 -0.000006 -0.004181 -0.053305 -18.741500
0.000000 0.000000 0.000000 0.000000 0.000000 -0.000000 -0.474543 91.242000 2.377170 89.306900 -1.969640 6.120960 15.735700 0.000005 -0.000001 93.351800 87.133000 -95.320500 8.984550 -0.406207 -0.000000 -2.030150 0.503376 -3.927790 16.377300 -0.000001 -0.000001 1.355600 -0.749126 -3.833880 6.456720 -0.000001 -0.000000 -0.112202 -2.614080 -2.862700 12.994200 -0.242716 4.980390 -84.157000 -11.155000 -62.123400 5.348090 -0.000007 -0.000001 -38.765400 -55.410300 -57.811600 24.328600 0.000019 0.000005 3.087590 6.116580 -26.857400 22.291600 -0.000001 0.000005 17.271900 4.963530 8.100250 12.994500 -0.242716 -4.980390 92.781600 -9.135670 -72.985900 -5.348130 -0.000001 -0.000004 -43.376300 -57.863600 -52.550600 -24.328900 0.000322 -0.000009 -13.775800 -26.054900 -29.167000 -22.291500 -0.000108 -0.000004 22.045100 5.253970 1.325190 -2.192480 -6.469440 -0.000000 -175.648000 -11.381400 -1.159580 39.081100 -0.000007 -0.000012 -0.159049 0.304858 27.552000 40.985400 -0.000006 -0.000013 0.170069 4.624550 -70.185300 11.754300 -0.000000 0.000003 -0.000252 -0.002245 -16.661700 -2.192510 6.469440 -0.000001 175.330000 19.884100 179.868000 -39.081100 -0.002282 -0.040193 -0.022391 0.050450 26.993900 -40.985400 0.000008 0.000006 6.080350 14.525600 -71.389300 -11.754300 -0.000006 -0.000006 -0.004266 -0.054175 -18.776900
0.000000 0.000000 0.000000 0.000000 0.000000 -0.000000 -0.434659 91.255900 1.982650 89.394700 -1.844950 6.023290 15.735700 0.000005 -0.000001 88.948200 86.848200 -90.724500 8.984550 -0.406207 -0.000000 -1.460620 0.027280 -3.551180 16.377300 -0.000001 -0.000001 0.706002 -0.733081 -2.938690 6.456720 -0.000001 -0.000000 -1.269600 -1.341910 -4.084070 12.994200 -0.242716 4.980390 -84.995900 -10.413400 -64.154600 5.348090 -0.000007 -0.000001 -39.836800 -54.388400 -44.865700 24.328600 0.000019 0.000005 4.069020 9.020890 -24.404100 22.291600 -0.000001 0.000005 15.267100 4.928510 8.806350 12.994500 -0.242716 -4.980390 92.105600 -6.909200 -73.004300 -5.348130 -0.000001 -0.000004 -51.383400 -58.593200 -52.642200 -24.328900 0.000322 -0.000009 -11.850800 -25.076500 -26.336800 -22.291500 -0.000108 -0.000004 22.500000 5.074310 5.676000 -2.192480 -6.469440 -0.000000 -175.890000 -11.101600 -1.673350 39.081100 -0.000007 -0.000012 -0.159020 0.302909 27.698600 40.985400 -0.000006 -0.000013 0.186151 4.439350 -69.951600 11.754300 -0.000000 0.000003 -0.000224 -0.002039 -16.654200 -2.192510 6.469440 -0.000001 175.277000 19.944100 179.391000 -39.081100 -0.002282 -0.040193 -0.049154 0.102320 27.145100 -40.985400 0.000008 0.000006 5.554490 14.628200 -71.025500 -11.754300 -0.000006 -0.000006 -0.004506 -0.056601 -18.875800
0.000000 0.000000 0.000000 0.000000 0.000000 -0.000000 -0.304623 91.237800 1.734160 89.541700 -2.256980 6.160700 15.735700 0.000005 -0.000001 87.485200 86.573700 -89.284000 8.984550 -0.406207 -0.000000 -0.920069 -0.164335 -3.597140 16.377300 -0.000001 -0.000001 0.106321 -1.154050 -1.396850 6.456720 -0.000001 -0.000000 -1.870710 -1.106140 -3.720230 12.994200 -0.242716 4.980390 -85.916000 -8.493560 -64.198900 5.348090 -0.000007 -0.000001 -40.185300 -54.347500 -39.014900 24.328600 0.000019 0.000005 5.277720 11.630300 -24.618500 22.291600 -0.000001 0.000005 14.339300 4.885310 9.666500 12.994500 -0.242716 -4.980390 91.810600 -5.905370 -72.920900 -5.348130 -0.000001 -0.000004 -58.056500 -59.560100 -54.377300 -24.328900 0.000322 -0.000009 -10.656300 -24.374800 -24.507000 -22.291500 -0.000108 -0.000004 22.696200 4.678700 13.516900 -2.192480 -6.469440 -0.000000 -176.055000 -11.644700 -1.725280 39.081100 -0.000007 -0.000012 -0.155278 0.293966 27.843900 40.985400 -0.000006 -0.000013 0.328450 4.542140 -69.899100 11.754300 -0.000000 0.000003 -0.000221 -0.002012 -16.653200 -2.192510 6.469440 -0.000001 174.984000 19.513900 179.165000 -39.081100 -0.002282 -0.040193 -0.099274 0.198361 27.345700 -40.985400 0.000008 0.000006 4.491400 14.944900 -70.594000 -11.754300 -0.000006 -0.000006 -0.004509 -0.056632 -18.877000
0.000000 0.000000 0.000000 0.000000 0.000000 -0.000000 -0.304555 91.258400 1.517480 89.579500 -2.365640 6.027510 15.735700 0.000005 -0.000001 88.916100 86.450000 -90.746000 8.984550 -0.406207 -0.000000 -0.664619 0.000282 -3.658050 16.377300 -0.000001 -0.000001 -0.356361 -1.495220 -1.221370 6.456720 -0.000001 -0.000000 -1.915620 -1.593060 -3.902460 12.994200 -0.242716 4.980390 -85.929100 -8.275640 -63.689500 5.348090 -0.000007 -0.000001 -45.944200 -55.480000 -43.905500 24.328600 0.000019 0.000005 4.829730 10.642400 -24.587000 22.291600 -0.000001 0.000005 18.117300 4.850130 10.361800 12.994500 -0.242716 -4.980390 91.882400 -6.178450 -73.019100 -5.348130 -0.000001 -0.000004 -67.878500 -62.194600 -62.947600 -24.328900 0.000322 -0.000009 -10.537100 -25.606000 -23.284300 -22.291500 -0.000108 -0.000004 27.478800 4.678420 13.585400 -2.192480 -6.469440 -0.000000 -176.051000 -12.161700 -1.984380 39.081100 -0.000007 -0.000012 -0.150872 0.285817 27.828100 40.985400 -0.000006 -0.000013 0.433587 4.919540 -69.742700 11.754300 -0.000000 0.000003 -0.000216 -0.001977 -16.652000 -2.192510 6.469440 -0.000001 174.963000 19.565600 178.882000 -39.081100 -0.002282 -0.040193 -0.125341 0.249497 27.277200 -40.985400 0.000008 0.000006 3.930550 15.222200 -70.230200 -11.754300 -0.000006 -0.000006 -0.004789 -0.059409 -18.990200
